<?xml version="1.0" encoding="UTF-8" standalone="no"?>
<!-- Created with Inkscape (http://www.inkscape.org/) -->

<svg
   width="183.265mm"
   height="183.265mm"
   viewBox="0 0 183.265 183.265"
   version="1.1"
   id="svg5"
   xml:space="preserve"
   inkscape:version="1.2 (dc2aedaf03, 2022-05-15)"
   sodipodi:docname="icon.svg"
   inkscape:export-filename="icon.png"
   inkscape:export-xdpi="300"
   inkscape:export-ydpi="300"
   xmlns:inkscape="http://www.inkscape.org/namespaces/inkscape"
   xmlns:sodipodi="http://sodipodi.sourceforge.net/DTD/sodipodi-0.dtd"
   xmlns:xlink="http://www.w3.org/1999/xlink"
   xmlns="http://www.w3.org/2000/svg"
   xmlns:svg="http://www.w3.org/2000/svg"><sodipodi:namedview
     id="namedview7"
     pagecolor="#ffffff"
     bordercolor="#666666"
     borderopacity="1.0"
     inkscape:showpageshadow="2"
     inkscape:pageopacity="0.0"
     inkscape:pagecheckerboard="0"
     inkscape:deskcolor="#d1d1d1"
     inkscape:document-units="mm"
     showgrid="false"
     showguides="true"
     inkscape:zoom="0.70710678"
     inkscape:cx="169.70563"
     inkscape:cy="302.6417"
     inkscape:window-width="1920"
     inkscape:window-height="1017"
     inkscape:window-x="-8"
     inkscape:window-y="-8"
     inkscape:window-maximized="1"
     inkscape:current-layer="layer1" /><defs
     id="defs2"><linearGradient
       inkscape:collect="always"
       id="linearGradient970"><stop
         style="stop-color:#9342dd;stop-opacity:1;"
         offset="0"
         id="stop966" /><stop
         style="stop-color:#6043f6;stop-opacity:1;"
         offset="1"
         id="stop968" /></linearGradient><linearGradient
       inkscape:collect="always"
       xlink:href="#linearGradient970"
       id="linearGradient972"
       x1="104.9688"
       y1="197.79192"
       x2="105.00063"
       y2="14.586934"
       gradientUnits="userSpaceOnUse" /></defs><g
     inkscape:label="Layer 1"
     inkscape:groupmode="layer"
     id="layer1"
     transform="translate(-13.36766,-14.558285)"><path
       id="path356"
       style="fill:url(#linearGradient972);fill-opacity:1;fill-rule:evenodd;stroke-width:3.5502;paint-order:stroke fill markers"
       d="m 104.99979,14.558285 c -13.807135,-1.2e-5 -25.000033,11.192885 -25.000022,25.00002 0.0084,12.832943 9.731789,23.57537 22.500432,24.85844 V 139.81886 L 62.110421,99.429075 c 3.481809,-4.411481 5.375651,-9.867452 5.375899,-15.48743 1.1e-5,-13.807136 -11.192888,-25.000033 -25.000024,-25.00002 -13.807136,-1.4e-5 -25.000036,11.192884 -25.000025,25.00002 -1.9e-5,13.807142 11.192883,25.000045 25.000025,25.000035 5.913221,-6.4e-4 11.634799,-2.09728 16.148368,-5.91747 l 17.484721,17.48472 -21.8705,12.87466 c -4.474011,-3.68093 -10.087585,-5.69368 -15.881201,-5.69422 -13.807136,-1e-5 -25.000035,11.19288 -25.000024,25.00002 -1.7e-5,13.80714 11.192884,25.00004 25.000024,25.00003 13.80714,10e-6 25.000041,-11.19289 25.000024,-25.00003 -7.92e-4,-5.73942 -1.976377,-11.30379 -5.595007,-15.75873 l 21.882385,-12.88654 22.845114,22.84562 v 45.89797 H 30.000236 v 5.03557 H 179.99987 v -5.03557 H 107.4999 v -45.89797 l 22.84563,-22.84562 21.88549,12.89016 c -3.61915,4.45348 -5.59598,10.01649 -5.59863,15.75511 -2e-5,13.80714 11.19289,25.00005 25.00003,25.00003 13.80714,10e-6 25.00004,-11.19289 25.00002,-25.00003 1e-5,-13.80713 -11.19289,-25.00003 -25.00002,-25.00002 -5.79214,0.004 -11.40318,2.01906 -15.87449,5.70094 l -21.87721,-12.88138 17.49505,-17.49505 c 4.50941,3.82163 10.22707,5.92183 16.13804,5.9278 13.80714,10e-6 25.00004,-11.192895 25.00002,-25.000035 10e-6,-13.807134 -11.19289,-25.000031 -25.00002,-25.00002 -13.80714,-1.7e-5 -25.00004,11.192882 -25.00003,25.00002 0.002,5.619397 1.8963,11.074395 5.37848,15.48484 L 107.4999,139.81886 V 64.431725 c 12.77414,-1.283891 22.49927,-12.034919 22.49992,-24.87342 1e-5,-13.807138 -11.19289,-25.000037 -25.00003,-25.00002 z m 0,5.00021 c 11.04555,9.9e-5 19.99972,8.95426 19.99982,19.99981 -1e-4,11.045554 -8.95427,19.999721 -19.99982,19.99982 -11.045752,1.81e-4 -20.000228,-8.954068 -20.000327,-19.99982 1.05e-4,-11.045748 8.954579,-19.999991 20.000327,-19.99981 z m -62.513494,44.38334 c 11.045547,1.04e-4 19.999707,8.954263 19.999812,19.99981 -9.7e-5,11.045553 -8.954259,19.999725 -19.999812,19.999825 -11.045756,1.8e-4 -20.000233,-8.954069 -20.00033,-19.999825 1.05e-4,-11.04575 8.95458,-19.999992 20.00033,-19.99981 z m 125.027514,0 c 11.04555,1.05e-4 19.99971,8.954263 19.99981,19.99981 -1e-4,11.045552 -8.95426,19.999725 -19.99981,19.999825 -11.04576,1.8e-4 -20.00023,-8.954069 -20.00033,-19.999825 1e-4,-11.04575 8.95458,-19.999992 20.00033,-19.99981 z M 38.367684,132.68958 c 11.04575,-1.8e-4 20.000225,8.95406 20.00033,19.99981 -1.05e-4,11.04575 -8.95458,19.99999 -20.00033,19.99981 -11.045548,-1e-4 -19.999708,-8.95426 -19.999813,-19.99981 1.05e-4,-11.04555 8.954265,-19.99971 19.999813,-19.99981 z m 133.264736,0 c 11.04555,1e-4 19.99971,8.95426 19.99981,19.99981 -1e-4,11.04555 -8.95426,19.99971 -19.99981,19.99981 -11.04575,1.8e-4 -20.00023,-8.95406 -20.00033,-19.99981 1e-4,-11.04575 8.95458,-19.99999 20.00033,-19.99981 z"
       sodipodi:nodetypes="cccccccccccccssccccccccccccccsscccccssccccccccccccccccccccccccccccccc" /></g></svg>
