<?xml version="1.0" encoding="UTF-8" standalone="no"?>
<!-- Created with Inkscape (http://www.inkscape.org/) -->

<svg
   width="183.265mm"
   height="183.265mm"
   viewBox="0 0 183.265 183.265"
   version="1.1"
   id="svg5"
   xml:space="preserve"
   inkscape:version="1.2 (dc2aedaf03, 2022-05-15)"
   sodipodi:docname="apple-touch-icon.svg"
   inkscape:export-filename="apple-touch-icon.png"
   inkscape:export-xdpi="300"
   inkscape:export-ydpi="300"
   xmlns:inkscape="http://www.inkscape.org/namespaces/inkscape"
   xmlns:sodipodi="http://sodipodi.sourceforge.net/DTD/sodipodi-0.dtd"
   xmlns:xlink="http://www.w3.org/1999/xlink"
   xmlns="http://www.w3.org/2000/svg"
   xmlns:svg="http://www.w3.org/2000/svg"><sodipodi:namedview
     id="namedview7"
     pagecolor="#ffffff"
     bordercolor="#666666"
     borderopacity="1.0"
     inkscape:showpageshadow="2"
     inkscape:pageopacity="0.0"
     inkscape:pagecheckerboard="0"
     inkscape:deskcolor="#d1d1d1"
     inkscape:document-units="mm"
     showgrid="false"
     showguides="true"
     inkscape:zoom="0.5"
     inkscape:cx="32"
     inkscape:cy="290"
     inkscape:window-width="1920"
     inkscape:window-height="1017"
     inkscape:window-x="-8"
     inkscape:window-y="-8"
     inkscape:window-maximized="1"
     inkscape:current-layer="layer1" /><defs
     id="defs2"><linearGradient
       inkscape:collect="always"
       id="linearGradient928"><stop
         style="stop-color:#9342dd;stop-opacity:1;"
         offset="0"
         id="stop924" /><stop
         style="stop-color:#6043f6;stop-opacity:1;"
         offset="1"
         id="stop926" /></linearGradient><linearGradient
       inkscape:collect="always"
       xlink:href="#linearGradient928"
       id="linearGradient938"
       x1="105.13465"
       y1="197.86423"
       x2="104.58504"
       y2="15.265687"
       gradientUnits="userSpaceOnUse" /></defs><g
     inkscape:label="Layer 1"
     inkscape:groupmode="layer"
     id="layer1"
     transform="translate(-13.36766,-14.558285)"><rect
       style="fill:url(#linearGradient938);fill-rule:evenodd;stroke-width:12.1561;paint-order:stroke fill markers;fill-opacity:1"
       id="rect367"
       width="183.265"
       height="183.265"
       x="13.36766"
       y="14.558285" /><path
       id="path356"
       style="fill:#ffffff;fill-opacity:1;fill-rule:evenodd;stroke-width:2.9058;paint-order:stroke fill markers"
       d="m 104.99995,29.603196 c -11.300975,-10e-6 -20.462227,9.161241 -20.462218,20.462213 0.0069,10.503608 7.965352,19.296155 18.416328,20.346332 V 132.12745 L 69.895519,99.068906 c 2.849818,-3.610741 4.399905,-8.076387 4.400108,-12.676271 9e-6,-11.300974 -9.161243,-20.462224 -20.462217,-20.462213 -11.300973,-1.2e-5 -20.462226,9.161239 -20.462217,20.462213 -1.5e-5,11.300978 9.161239,20.462225 20.462217,20.462215 4.8399,-5.2e-4 9.522942,-1.7166 13.217244,-4.84338 l 14.311032,14.31103 -17.900739,10.53776 c -3.661924,-3.0128 -8.256566,-4.66021 -12.998571,-4.66065 -11.300973,-1e-5 -20.462225,9.16123 -20.462216,20.46221 -1.4e-5,11.30098 9.16124,20.46223 20.462216,20.46222 11.300977,1e-5 20.462231,-9.16124 20.462217,-20.46222 -6.48e-4,-4.69765 -1.617641,-9.25202 -4.579445,-12.89833 l 17.910466,-10.54748 18.698446,18.69887 v 37.56693 H 43.613722 v 4.12155 H 166.3866 v -4.12155 h -59.34034 v -37.56693 l 18.69887,-18.69887 17.91301,10.55044 c -2.96223,3.64512 -4.58025,8.19838 -4.58241,12.89537 -2e-5,11.30098 9.16124,20.46224 20.46222,20.46222 11.30097,1e-5 20.46223,-9.16124 20.46221,-20.46222 1e-5,-11.30097 -9.16124,-20.46222 -20.46221,-20.46221 -4.7408,0.003 -9.33337,1.65257 -12.99308,4.66615 l -17.90623,-10.54326 14.31948,-14.31948 c 3.6909,3.12796 8.37074,4.84695 13.20879,4.85183 11.30098,1e-5 20.46223,-9.161239 20.46222,-20.462215 1e-5,-11.300972 -9.16125,-20.462222 -20.46222,-20.462213 -11.30097,-1.4e-5 -20.46223,9.161238 -20.46222,20.462213 0.002,4.599408 1.5521,9.064258 4.40222,12.674151 L 107.04626,132.12745 V 70.424002 c 10.45548,-1.050849 18.41538,-9.850435 18.41591,-20.358593 1e-5,-11.300975 -9.16125,-20.462227 -20.46222,-20.462213 z m 0,4.092611 c 9.04065,8.1e-5 16.36953,7.328953 16.36961,16.369602 -8e-5,9.040652 -7.32896,16.369529 -16.36961,16.36961 -9.040817,1.48e-4 -16.369947,-7.328796 -16.370028,-16.36961 8.6e-5,-9.040811 7.329214,-16.36975 16.370028,-16.369602 z M 53.83341,70.023033 c 9.040647,8.5e-5 16.369518,7.328955 16.369604,16.369602 -7.9e-5,9.040651 -7.328952,16.369525 -16.369604,16.369605 -9.040817,1.5e-4 -16.369948,-7.328788 -16.370027,-16.369605 8.6e-5,-9.040813 7.329215,-16.369751 16.370027,-16.369602 z m 102.3335,0 c 9.04065,8.6e-5 16.36952,7.328955 16.36961,16.369602 -9e-5,9.04065 -7.32896,16.369525 -16.36961,16.369605 -9.04082,1.5e-4 -16.36994,-7.328788 -16.37002,-16.369605 8e-5,-9.040813 7.32921,-16.369751 16.37002,-16.369602 z M 50.462376,126.29222 c 9.040813,-1.5e-4 16.369942,7.32879 16.370028,16.3696 -8.6e-5,9.04081 -7.329215,16.36975 -16.370028,16.3696 -9.040647,-8e-5 -16.369518,-7.32895 -16.369604,-16.3696 8.6e-5,-9.04065 7.328957,-16.36952 16.369604,-16.3696 z m 109.075574,0 c 9.04065,8e-5 16.36952,7.32895 16.3696,16.3696 -8e-5,9.04065 -7.32895,16.36952 -16.3696,16.3696 -9.04082,1.5e-4 -16.36995,-7.32879 -16.37003,-16.3696 8e-5,-9.04081 7.32921,-16.36975 16.37003,-16.3696 z"
       sodipodi:nodetypes="cccccccccccccssccccccccccccccsscccccssccccccccccccccccccccccccccccccc" /></g></svg>
