<?xml version="1.0" encoding="UTF-8" standalone="no"?>
<!-- Created with Inkscape (http://www.inkscape.org/) -->

<svg
   width="183.26479mm"
   height="201.2213mm"
   viewBox="0 0 183.26479 201.2213"
   version="1.1"
   id="svg5"
   xml:space="preserve"
   inkscape:version="1.2 (dc2aedaf03, 2022-05-15)"
   sodipodi:docname="logo.svg"
   xmlns:inkscape="http://www.inkscape.org/namespaces/inkscape"
   xmlns:sodipodi="http://sodipodi.sourceforge.net/DTD/sodipodi-0.dtd"
   xmlns:xlink="http://www.w3.org/1999/xlink"
   xmlns="http://www.w3.org/2000/svg"
   xmlns:svg="http://www.w3.org/2000/svg"><sodipodi:namedview
     id="namedview7"
     pagecolor="#ffffff"
     bordercolor="#666666"
     borderopacity="1.0"
     inkscape:showpageshadow="2"
     inkscape:pageopacity="0.0"
     inkscape:pagecheckerboard="0"
     inkscape:deskcolor="#d1d1d1"
     inkscape:document-units="mm"
     showgrid="false"
     showguides="true"
     inkscape:zoom="1"
     inkscape:cx="351.5"
     inkscape:cy="289"
     inkscape:window-width="1920"
     inkscape:window-height="1017"
     inkscape:window-x="-8"
     inkscape:window-y="-8"
     inkscape:window-maximized="1"
     inkscape:current-layer="layer1" /><defs
     id="defs2"><linearGradient
       inkscape:collect="always"
       id="linearGradient2229"><stop
         style="stop-color:#1874e7;stop-opacity:1;"
         offset="0"
         id="stop2227" /><stop
         style="stop-color:#9342dd;stop-opacity:1;"
         offset="1"
         id="stop2225" /></linearGradient><radialGradient
       inkscape:collect="always"
       xlink:href="#linearGradient2229"
       id="radialGradient3357"
       cx="105.00005"
       cy="115.16894"
       fx="105.00005"
       fy="115.16894"
       r="91.632393"
       gradientTransform="matrix(1,0,0,1.0979813,13.36766,3.273881)"
       gradientUnits="userSpaceOnUse" /></defs><g
     inkscape:label="Layer 1"
     inkscape:groupmode="layer"
     id="layer1"
     transform="translate(-13.36766,-14.558285)"><path
       id="path356"
       style="fill:url(#radialGradient3357);fill-opacity:1;fill-rule:evenodd;stroke-width:3.5502;paint-order:stroke fill markers"
       d="M 104.99979,14.558285 A 25,25 0 0 0 79.999768,39.558305 25,25 0 0 0 102.5002,64.416745 V 139.81886 L 62.110421,99.429075 a 25,25 0 0 0 5.375899,-15.48743 25,25 0 0 0 -25.000024,-25.00002 25,25 0 0 0 -25.000025,25.00002 25,25 0 0 0 25.000025,25.000035 25,25 0 0 0 16.148368,-5.91747 l 17.484721,17.48472 -21.8705,21.87049 A 25,25 0 0 0 38.367684,136.6852 25,25 0 0 0 13.36766,161.68522 25,25 0 0 0 38.367684,186.68525 25,25 0 0 0 63.367708,161.68522 25,25 0 0 0 57.772701,145.92649 l 21.882385,-21.88237 22.845114,22.84562 v 63.88964 H 30.000236 v 5.00021 H 179.99987 v -5.00021 H 107.4999 v -63.88964 l 22.84563,-22.84562 21.88549,21.88599 a 25,25 0 0 0 -5.59863,15.75511 25,25 0 0 0 25.00003,25.00003 25,25 0 0 0 25.00002,-25.00003 25,25 0 0 0 -25.00002,-25.00002 25,25 0 0 0 -15.87449,5.70094 l -21.87721,-21.87721 17.49505,-17.49505 a 25,25 0 0 0 16.13804,5.9278 25,25 0 0 0 25.00002,-25.000035 25,25 0 0 0 -25.00002,-25.00002 25,25 0 0 0 -25.00003,25.00002 25,25 0 0 0 5.37848,15.48484 L 107.4999,139.81886 V 64.431725 a 25,25 0 0 0 22.49992,-24.87342 25,25 0 0 0 -25.00003,-25.00002 z m 0,5.00021 a 20,20 0 0 1 19.99982,19.99981 20,20 0 0 1 -19.99982,19.99982 20,20 0 0 1 -20.000327,-19.99982 20,20 0 0 1 20.000327,-19.99981 z m -62.513494,44.38334 a 20,20 0 0 1 19.999812,19.99981 20,20 0 0 1 -19.999812,19.999825 20,20 0 0 1 -20.00033,-19.999825 20,20 0 0 1 20.00033,-19.99981 z m 125.027514,0 a 20,20 0 0 1 19.99981,19.99981 20,20 0 0 1 -19.99981,19.999825 20,20 0 0 1 -20.00033,-19.999825 20,20 0 0 1 20.00033,-19.99981 z M 38.367684,141.68541 a 20,20 0 0 1 20.00033,19.99981 20,20 0 0 1 -20.00033,19.99981 20,20 0 0 1 -19.999813,-19.99981 20,20 0 0 1 19.999813,-19.99981 z m 133.264736,0 a 20,20 0 0 1 19.99981,19.99981 20,20 0 0 1 -19.99981,19.99981 20,20 0 0 1 -20.00033,-19.99981 20,20 0 0 1 20.00033,-19.99981 z" /></g></svg>
