<?xml version="1.0" encoding="UTF-8" standalone="no"?>
<!-- Created with Inkscape (http://www.inkscape.org/) -->

<svg
   width="800.099mm"
   height="201.2213mm"
   viewBox="0 0 800.09901 201.2213"
   version="1.1"
   id="svg5"
   xml:space="preserve"
   inkscape:version="1.2 (dc2aedaf03, 2022-05-15)"
   sodipodi:docname="logo.svg"
   xmlns:inkscape="http://www.inkscape.org/namespaces/inkscape"
   xmlns:sodipodi="http://sodipodi.sourceforge.net/DTD/sodipodi-0.dtd"
   xmlns:xlink="http://www.w3.org/1999/xlink"
   xmlns="http://www.w3.org/2000/svg"
   xmlns:svg="http://www.w3.org/2000/svg"><sodipodi:namedview
     id="namedview7"
     pagecolor="#ffffff"
     bordercolor="#666666"
     borderopacity="1.0"
     inkscape:showpageshadow="2"
     inkscape:pageopacity="0.0"
     inkscape:pagecheckerboard="0"
     inkscape:deskcolor="#d1d1d1"
     inkscape:document-units="mm"
     showgrid="false"
     showguides="true"
     inkscape:zoom="0.35355339"
     inkscape:cx="1376.0298"
     inkscape:cy="93.338095"
     inkscape:window-width="1920"
     inkscape:window-height="1017"
     inkscape:window-x="-8"
     inkscape:window-y="-8"
     inkscape:window-maximized="1"
     inkscape:current-layer="layer1" /><defs
     id="defs2"><linearGradient
       inkscape:collect="always"
       id="linearGradient2431"><stop
         style="stop-color:#9342dd;stop-opacity:1;"
         offset="0"
         id="stop2427" /><stop
         style="stop-color:#2d6ce6;stop-opacity:1;"
         offset="1"
         id="stop2429" /></linearGradient><linearGradient
       inkscape:collect="always"
       id="linearGradient2229"><stop
         style="stop-color:#1874e7;stop-opacity:1;"
         offset="0"
         id="stop2227" /><stop
         style="stop-color:#9342dd;stop-opacity:1;"
         offset="1"
         id="stop2225" /></linearGradient><radialGradient
       inkscape:collect="always"
       xlink:href="#linearGradient2229"
       id="radialGradient3357"
       cx="105.00005"
       cy="115.16894"
       fx="105.00005"
       fy="115.16894"
       r="91.632393"
       gradientTransform="matrix(1,0,0,1.0979813,13.36766,3.273881)"
       gradientUnits="userSpaceOnUse" /><linearGradient
       inkscape:collect="always"
       xlink:href="#linearGradient2431"
       id="linearGradient2433"
       x1="233.72011"
       y1="115.16893"
       x2="764.53876"
       y2="115.16893"
       gradientUnits="userSpaceOnUse" /></defs><g
     inkscape:label="Layer 1"
     inkscape:groupmode="layer"
     id="layer1"
     transform="translate(-13.36766,-14.558285)"><path
       id="path356"
       style="fill:url(#radialGradient3357);fill-opacity:1;fill-rule:evenodd;stroke-width:3.5502;paint-order:stroke fill markers"
       d="M 104.99979,14.558285 A 25,25 0 0 0 79.999768,39.558305 25,25 0 0 0 102.5002,64.416745 V 139.81886 L 62.110421,99.429075 a 25,25 0 0 0 5.375899,-15.48743 25,25 0 0 0 -25.000024,-25.00002 25,25 0 0 0 -25.000025,25.00002 25,25 0 0 0 25.000025,25.000035 25,25 0 0 0 16.148368,-5.91747 l 17.484721,17.48472 -21.8705,21.87049 A 25,25 0 0 0 38.367684,136.6852 25,25 0 0 0 13.36766,161.68522 25,25 0 0 0 38.367684,186.68525 25,25 0 0 0 63.367708,161.68522 25,25 0 0 0 57.772701,145.92649 l 21.882385,-21.88237 22.845114,22.84562 v 63.88964 H 30.000236 v 5.00021 H 179.99987 v -5.00021 H 107.4999 v -63.88964 l 22.84563,-22.84562 21.88549,21.88599 a 25,25 0 0 0 -5.59863,15.75511 25,25 0 0 0 25.00003,25.00003 25,25 0 0 0 25.00002,-25.00003 25,25 0 0 0 -25.00002,-25.00002 25,25 0 0 0 -15.87449,5.70094 l -21.87721,-21.87721 17.49505,-17.49505 a 25,25 0 0 0 16.13804,5.9278 25,25 0 0 0 25.00002,-25.000035 25,25 0 0 0 -25.00002,-25.00002 25,25 0 0 0 -25.00003,25.00002 25,25 0 0 0 5.37848,15.48484 L 107.4999,139.81886 V 64.431725 a 25,25 0 0 0 22.49992,-24.87342 25,25 0 0 0 -25.00003,-25.00002 z m 0,5.00021 a 20,20 0 0 1 19.99982,19.99981 20,20 0 0 1 -19.99982,19.99982 20,20 0 0 1 -20.000327,-19.99982 20,20 0 0 1 20.000327,-19.99981 z m -62.513494,44.38334 a 20,20 0 0 1 19.999812,19.99981 20,20 0 0 1 -19.999812,19.999825 20,20 0 0 1 -20.00033,-19.999825 20,20 0 0 1 20.00033,-19.99981 z m 125.027514,0 a 20,20 0 0 1 19.99981,19.99981 20,20 0 0 1 -19.99981,19.999825 20,20 0 0 1 -20.00033,-19.999825 20,20 0 0 1 20.00033,-19.99981 z M 38.367684,141.68541 a 20,20 0 0 1 20.00033,19.99981 20,20 0 0 1 -20.00033,19.99981 20,20 0 0 1 -19.999813,-19.99981 20,20 0 0 1 19.999813,-19.99981 z m 133.264736,0 a 20,20 0 0 1 19.99981,19.99981 20,20 0 0 1 -19.99981,19.99981 20,20 0 0 1 -20.00033,-19.99981 20,20 0 0 1 20.00033,-19.99981 z" /><g
       aria-label="Taxonomy"
       id="text467"
       style="font-size:176.389px;line-height:1.25;font-family:'Amatic SC';-inkscape-font-specification:'Amatic SC';letter-spacing:13.2292px;word-spacing:0px;fill:url(#linearGradient2433);stroke-width:0.264583"><path
         d="m 279.8897,130.24119 0.86127,41.08279 q 0,6.8902 -3.01446,6.8902 -1.80867,0 -2.75608,-2.41157 -0.9474,-2.4977 -0.9474,-4.65088 l 1.46417,-28.93882 q 0,-9.30177 -1.29191,-28.07755 -1.20579,-18.861911 -1.20579,-28.33593 l 0.17226,-16.53647 q 0,-18.172891 -3.01446,-18.172891 l -9.99079,1.03353 q -1.29191,0 -2.49769,-0.775147 -1.20579,-0.861275 -1.20579,-2.239314 0,-1.808676 11.71334,-3.445098 11.71333,-1.636421 18.60352,-1.636421 1.29192,0 2.4977,0.947402 1.20578,0.861274 1.20578,2.067058 0,2.583824 -3.35897,2.583824 0,0 -6.54568,-0.516765 -3.01446,0 -3.70348,1.808676 1.29191,11.110441 1.29191,22.909901 l -0.25838,21.359606 q 0,20.842839 2.49769,29.972349 -0.51676,2.58383 -0.51676,5.08152 z"
         id="path423" /><path
         d="m 341.95316,150.91178 -4.65088,0.17225 q -2.49769,-1.03353 -5.51216,-1.03353 -3.01446,0 -3.27284,0.17226 -0.25838,0.17225 -0.34451,0.60289 -0.0861,0.43064 -0.17225,0.60289 l -0.34451,3.53123 q -0.34451,4.47863 -1.63642,10.76593 -2.41157,12.31622 -5.08152,12.31622 -1.11966,0 -2.32544,-0.9474 -1.20579,-0.9474 -1.20579,-2.06706 2.23931,-6.63181 4.65088,-20.06769 2.41157,-13.43588 3.01446,-16.70873 0.6029,-3.35897 2.23932,-13.43588 1.63642,-10.07691 2.15318,-13.26362 0.51677,-3.18672 2.75608,-13.780396 2.32544,-10.593675 2.75608,-13.866518 0.51676,-3.272843 1.11966,-8.871127 1.46416,-13.780391 2.32544,-15.330685 l 2.41157,0.172255 q 2.15318,0 3.18671,-1.03353 1.11966,0 2.15319,0.775147 1.03353,0.68902 1.03353,1.894804 0,8.44049 2.15318,32.642302 2.15319,24.201808 3.35897,31.350388 1.29192,7.06245 2.92834,13.95265 1.63642,6.80407 1.63642,10.42142 l -0.86128,2.41157 q 0,3.96186 1.46417,11.71333 1.46417,7.66534 1.46417,10.85206 0,3.10059 -1.37804,3.87573 -3.61735,0 -4.47863,-1.03353 -0.77515,-1.03353 -0.77515,-3.27284 0,-2.32544 -0.34451,-5.59828 -0.25838,-3.35897 -0.60289,-5.3399 -0.25838,-1.98094 -1.03353,-6.20118 -0.68902,-4.30637 -0.86127,-5.51216 -3.35897,-0.86127 -7.92373,-0.86127 z m -12.40235,-8.69887 q 0,1.80867 4.22025,3.01446 6.45955,1.80867 14.29715,1.80867 h 1.80868 q -1.11966,-3.44509 -1.11966,-7.92372 v -4.04799 q 0,-10.93819 -2.75608,-31.86716 -2.66995,-20.928966 -2.8422,-31.178132 -9.21564,45.561422 -11.45495,56.327352 -2.15319,10.6798 -2.15319,13.86652 z"
         id="path425" /><path
         d="m 396.35128,173.30491 q 0,4.3925 -2.66995,4.3925 -3.27284,0 -3.27284,-2.06706 0,-8.61274 4.90927,-27.47465 4.90926,-18.86191 4.90926,-25.57985 0,-6.80407 -4.73701,-28.766568 -4.65088,-22.048626 -6.37343,-24.029557 l 0.17225,-1.291912 q 0,-1.119657 -0.77514,-2.497696 -0.77515,-1.378039 -0.77515,-2.067059 0,-0.689019 1.11966,-1.205784 1.20578,-0.516764 2.23931,-0.516764 1.11966,0 1.98093,1.636421 1.46417,2.583823 1.72255,8.957254 2.23931,5.942794 4.3925,17.656127 2.23931,11.627208 3.70348,16.364218 1.11966,-2.32544 2.84221,-14.211032 1.72255,-11.885588 2.49769,-21.617989 0.77515,-9.732401 1.89481,-10.076911 0.43063,-0.08613 1.37803,-0.258382 1.03353,-0.172255 1.46417,-0.258383 l 1.5503,2.153186 q -2.84221,4.220245 -2.84221,15.50294 l 0.17225,2.153187 -0.17225,0.172255 q -0.51676,5.253774 -3.53123,19.378675 -2.92833,14.038774 -2.92833,21.876374 0,2.92833 4.56476,23.59892 4.56475,20.58446 5.3399,22.56539 0.77514,1.8948 1.37804,3.01446 1.37804,2.15318 1.37804,3.53122 0,2.4977 -2.66995,2.4977 -1.20579,0 -2.23932,-0.51677 -1.03353,-4.22024 -3.27284,-13.34975 -4.65088,-19.03417 -6.63181,-29.54171 -1.98094,2.92833 -3.87574,18.5174 -1.8948,15.50294 -3.18672,19.20642 0.34451,0.68902 0.34451,2.15318 z m 18.34515,-51.50421 v 0.17226 z"
         id="path427" /><path
         d="m 487.00906,109.05384 0.34451,21.0151 q 0,39.70475 -12.74686,48.31749 -3.10059,2.15319 -6.97633,2.15319 -20.67058,0 -20.67058,-64.94009 0,-25.063091 3.44509,-43.494364 2.58383,-13.435882 7.8376,-13.435882 1.20578,0 2.23931,0.947402 1.11966,0.947402 2.92834,1.636422 1.8948,0.602892 5.08152,1.205784 3.27284,0.602892 4.65088,0.861274 3.53122,0.602892 6.80407,6.804069 7.40696,12.574607 7.40696,38.068335 z m -34.53711,6.37343 0.34451,13.95265 q 0,16.79485 3.78961,31.95328 1.37804,5.68441 4.04799,9.90466 2.75608,4.22024 6.20117,4.22024 3.53123,0 6.11505,-2.58382 2.66995,-2.58383 4.22025,-7.14858 1.55029,-4.65088 2.58382,-9.38789 1.03353,-4.82314 1.46417,-10.76593 0.68902,-9.47402 0.68902,-16.88098 l -1.98093,-41.685686 -0.68902,-1.378039 0.34451,-0.861275 q 0,-7.665342 -4.30638,-13.349754 -4.30637,-5.684411 -10.50754,-5.684411 h -7.40696 q -1.46417,0 -2.58383,15.761322 -1.11965,15.675195 -1.46416,17.397744 z"
         id="path429" /><path
         d="m 568.79571,69.779725 -0.34451,-4.3925 q 0,-3.70348 2.4977,-3.70348 1.72255,0 2.75608,1.636421 1.11965,1.636422 1.11965,3.445098 v 11.79946 l -0.9474,1.464167 q 0,13.780391 -1.8948,53.399019 -1.89481,39.53249 -3.70348,43.23597 -0.43064,0.0861 -2.58383,0.6029 -2.06706,0.60289 -2.92833,0.60289 -0.86127,0 -1.55029,-1.11966 -0.68902,-1.20578 -1.11966,-3.10059 -0.34451,-1.8948 -0.68902,-2.49769 l 0.17225,-0.51677 q -1.11965,-7.32083 -4.65088,-16.70872 -3.4451,-9.47402 -4.47863,-12.74686 -0.60289,-0.77515 -4.737,-13.1775 -15.84745,-49.178774 -19.98157,-53.140636 -1.37804,5.426029 -1.37804,12.402352 l 0.34451,13.866514 -0.34451,8.52662 q 0,1.98093 0.68902,12.31623 h -0.51677 q 0,29.36946 1.20579,32.47004 v 15.84745 q 0.68902,1.20579 0.68902,3.10059 0,4.13412 -3.27285,4.13412 -3.70348,0 -3.70348,-9.47402 l 0.68902,-11.54108 -1.11965,-50.72906 1.11965,-31.264266 v -3.100588 q 0,-2.325441 0.0861,-3.100588 0.17226,-0.775147 0.25838,-1.808676 0.17226,-1.119657 0.43064,-1.722549 0.25838,-0.602892 0.60289,-1.378039 0.68902,-1.550294 1.80868,-2.497696 l 0.51676,0.602892 1.72255,-0.430637 q 1.98093,0.689019 2.41157,2.756078 0,0.172255 0.17226,1.033529 0.25838,0.775147 0.25838,0.861275 3.01446,12.574607 12.66073,35.053865 9.64628,22.47927 11.71334,28.93883 2.06705,6.37343 3.70348,13.52201 3.61735,15.84745 7.92372,23.16828 l 0.34451,-0.51677 q 4.04799,-38.49896 4.04799,-96.118225 z M 565.09223,177.3529 q 0.17226,0 0.17226,0.17226 z"
         id="path431" /><path
         d="m 645.67307,109.05384 0.34451,21.0151 q 0,39.70475 -12.74686,48.31749 -3.10059,2.15319 -6.97632,2.15319 -20.67059,0 -20.67059,-64.94009 0,-25.063091 3.4451,-43.494364 2.58382,-13.435882 7.8376,-13.435882 1.20578,0 2.23931,0.947402 1.11966,0.947402 2.92833,1.636422 1.89481,0.602892 5.08152,1.205784 3.27285,0.602892 4.65089,0.861274 3.53122,0.602892 6.80406,6.804069 7.40696,12.574607 7.40696,38.068335 z m -34.5371,6.37343 0.34451,13.95265 q 0,16.79485 3.78961,31.95328 1.37803,5.68441 4.04799,9.90466 2.75607,4.22024 6.20117,4.22024 3.53123,0 6.11505,-2.58382 2.66995,-2.58383 4.22025,-7.14858 1.55029,-4.65088 2.58382,-9.38789 1.03353,-4.82314 1.46417,-10.76593 0.68901,-9.47402 0.68901,-16.88098 l -1.98093,-41.685686 -0.68902,-1.378039 0.34451,-0.861275 q 0,-7.665342 -4.30637,-13.349754 -4.30637,-5.684411 -10.50755,-5.684411 h -7.40696 q -1.46416,0 -2.58382,15.761322 -1.11966,15.675195 -1.46417,17.397744 z"
         id="path433" /><path
         d="m 748.81935,142.04065 -0.34451,18.5174 q 0,12.31623 1.72255,18.34515 0.34451,1.03353 0.34451,2.23931 0,1.20579 -1.11966,3.18672 -1.03353,1.98093 -2.75608,1.98093 -3.53122,0 -3.53122,-11.2827 0,-36.77642 -0.60289,-44.78627 -0.51677,-8.09598 -1.20579,-13.09137 -0.60289,-4.99539 -0.60289,-7.66534 l 0.68902,-21.876374 q 0,-6.201176 -0.68902,-8.354362 -3.4451,2.756078 -21.18735,74.327986 -0.17226,0.60289 -0.43064,2.58382 -0.17225,1.98093 -0.51676,3.70348 -0.25839,1.63642 -0.77515,3.4451 -1.11966,3.96186 -3.61735,3.96186 -2.92834,0 -4.13412,-1.37804 -1.11966,-1.46416 -1.11966,-4.3925 0,-7.2347 -9.12951,-43.75274 -9.12951,-36.518035 -12.23009,-39.532496 -0.43064,9.474019 -1.5503,29.024946 -2.32544,40.73828 -2.32544,54.69093 0,13.95265 0.17226,16.27809 -0.77515,2.32544 -3.70348,2.32544 -0.6029,0 -1.80868,-0.9474 -1.20579,-0.9474 -1.20579,-1.5503 0,-18.60352 2.75608,-55.63833 2.75608,-37.034798 2.75608,-55.638326 l -1.03353,-3.35897 q 0,-2.669951 4.73701,-2.669951 2.66995,0 3.4451,2.756078 0.60289,2.153186 0.68902,4.478627 0.17225,2.239314 0.68902,5.167647 0.51676,2.842206 4.47863,11.885588 4.04799,8.957254 4.90926,12.143969 0.86127,3.186718 2.23931,7.837598 2.84221,10.07691 3.78961,15.15843 l 2.32544,4.65088 q 0.51677,2.92834 1.98093,8.61275 2.92834,11.97171 3.10059,19.03416 2.06706,-3.10059 11.11044,-36.43191 9.04338,-33.417446 9.81853,-37.809946 0.86127,-4.392499 1.20578,-6.631813 0.34451,-2.325441 0.68902,-3.617353 0.34451,-1.378039 0.94741,-3.272842 1.29191,-3.617353 4.30637,-3.617353 1.11966,0 2.75608,1.033529 1.63642,1.033529 1.63642,2.153186 0,73.897352 2.32544,77.773082 z m -8.09598,-63.820436 h -0.17226 l -0.25838,0.172255 0.43064,0.172255 z"
         id="path435" /><path
         d="m 802.87297,139.11232 0.17225,27.99142 q 0,12.74686 -3.70348,12.74686 -0.60289,0 -1.46416,-0.68902 -0.86128,-0.68902 -1.11966,-1.29191 1.72255,-4.30637 1.72255,-30.83363 0,-5.16764 -0.68902,-14.72779 -0.60289,-9.56015 -0.68902,-12.48848 l -1.11966,-2.23931 0.51677,-2.15319 q -2.23932,-5.16765 -8.26824,-22.307008 -8.785,-24.546321 -8.95725,-28.508184 l 2.41157,-1.894804 q 1.72255,0.258383 5.16764,11.282696 3.4451,10.938185 6.71794,21.962498 3.35898,11.024312 4.73701,11.368822 l 0.68902,-3.18671 -0.34451,-0.86128 q 1.29192,-1.55029 3.35897,-12.488479 2.15319,-11.024313 4.56476,-20.842841 2.41157,-9.904657 4.65088,-9.904657 2.23931,0 2.23931,1.894804 0,1.894804 -1.8948,8.612745 -1.8948,6.631813 -3.53122,12.14397 -1.63643,5.512156 -2.4977,8.526617 -0.77515,3.01446 -1.80868,7.579215 -2.06706,8.612746 -2.06706,16.105836 0.86128,2.15318 0.86128,3.01446 l -1.03353,5.08152 z"
         id="path437" /></g></g></svg>
