<?xml version="1.0" encoding="UTF-8" standalone="no"?>
<svg
   viewBox="0 0 448 448"
   version="1.1"
   id="svg4"
   sodipodi:docname="align-justify.svg"
   width="448"
   height="448"
   inkscape:version="1.2 (dc2aedaf03, 2022-05-15)"
   xmlns:inkscape="http://www.inkscape.org/namespaces/inkscape"
   xmlns:sodipodi="http://sodipodi.sourceforge.net/DTD/sodipodi-0.dtd"
   xmlns="http://www.w3.org/2000/svg"
   xmlns:svg="http://www.w3.org/2000/svg">
  <defs
     id="defs8" />
  <sodipodi:namedview
     id="namedview6"
     pagecolor="#ffffff"
     bordercolor="#666666"
     borderopacity="1.0"
     inkscape:showpageshadow="2"
     inkscape:pageopacity="0.0"
     inkscape:pagecheckerboard="0"
     inkscape:deskcolor="#d1d1d1"
     showgrid="false"
     inkscape:zoom="0.4609375"
     inkscape:cx="223.45763"
     inkscape:cy="223.45763"
     inkscape:window-width="1920"
     inkscape:window-height="1017"
     inkscape:window-x="-8"
     inkscape:window-y="-8"
     inkscape:window-maximized="1"
     inkscape:current-layer="svg4" />
  <path
     d="M 448,32 C 448,14.3 433.7,0 416,0 H 32 C 14.3,0 0,14.3 0,32 0,49.7 14.3,64 32,64 h 384 c 17.7,0 32,-14.3 32,-32 z m 0,256 c 0,-17.7 -14.3,-32 -32,-32 H 32 c -17.7,0 -32,14.3 -32,32 0,17.7 14.3,32 32,32 h 384 c 17.7,0 32,-14.3 32,-32 z M 0,160 c 0,17.7 14.3,32 32,32 h 384 c 17.7,0 32,-14.3 32,-32 0,-17.7 -14.3,-32 -32,-32 H 32 C 14.3,128 0,142.3 0,160 Z m 448,256 c 0,-17.7 -14.3,-32 -32,-32 H 32 c -17.7,0 -32,14.3 -32,32 0,17.7 14.3,32 32,32 h 384 c 17.7,0 32,-14.3 32,-32 z"
     id="path2" />
</svg>
